PathFileType  4	(X/Y/Z) C:\Users\antoi\Documents\MyRepositories\mobilecap\ResultsAnalysis
DataRate	CameraRate	NumFrames	NumMarkers	Units	OrigDataRate	OrigDataStartFrame	OrigNumFrames
100.0	100.0	4	51	mm	100.0	205	234
Frame#	Time	r_knee			r_shank_antsup			r_ankle			r_calc			r_5meta			r_toe			L_knee			L_shank_antsup			L_ankle			L_calc			L_5meta			L_toe			r_sh2			r_sh3			r_sh4			L_sh2			L_sh3			r_thigh1			r_thigh2			r_thigh3			r_thigh4			r_thigh5			L_thigh1			L_thigh2			L_thigh3			L_thigh4			r.ASIS			r.PSIS			L.ASIS			L.PSIS			C7			R_Shoulder			L_Shoulder			R_Sternum			L_Sternum			R_humerus			R_elbow_med			R_elbow_lat			R_forearm			R_wrist_radius			R_wrist_ulna			L_humerus			L_elbow_med			L_elbow_lat			L_forearm			L_wrist_radius			L_wrist_ulna			R_HJC			L_HJC			R_HJC_reg			L_HJC_reg			
		X1	Y1	Z1	X2	Y2	Z2	X3	Y3	Z3	X4	Y4	Z4	X5	Y5	Z5	X6	Y6	Z6	X7	Y7	Z7	X8	Y8	Z8	X9	Y9	Z9	X10	Y10	Z10	X11	Y11	Z11	X12	Y12	Z12	X13	Y13	Z13	X14	Y14	Z14	X15	Y15	Z15	X16	Y16	Z16	X17	Y17	Z17	X18	Y18	Z18	X19	Y19	Z19	X20	Y20	Z20	X21	Y21	Z21	X22	Y22	Z22	X23	Y23	Z23	X24	Y24	Z24	X25	Y25	Z25	X26	Y26	Z26	X27	Y27	Z27	X28	Y28	Z28	X29	Y29	Z29	X30	Y30	Z30	X31	Y31	Z31	X32	Y32	Z32	X33	Y33	Z33	X34	Y34	Z34	X35	Y35	Z35	X36	Y36	Z36	X37	Y37	Z37	X38	Y38	Z38	X39	Y39	Z39	X40	Y40	Z40	X41	Y41	Z41	X42	Y42	Z42	X43	Y43	Z43	X44	Y44	Z44	X45	Y45	Z45	X46	Y46	Z46	X47	Y47	Z47	X48	Y48	Z48	X49	Y49	Z49	X50	Y50	Z50	X51	Y51	Z51	

205	2.04000000	-179.79118	821.11783	-406.81959	-144.88982	755.39237	-402.96999	-224.72524	423.31790	-322.09042	-291.30825	424.84183	-363.50903	-162.44709	314.13926	-286.89337	-101.31925	317.41700	-333.44636	-177.41781	811.09154	-872.61325	-143.64814	728.38034	-900.01255	-173.54789	410.08363	-912.93384	-213.27073	408.77842	-838.62224	-120.90843	299.19551	-966.62415	-54.47017	313.28144	-946.52284	-170.29890	653.19845	-353.27199	-222.57762	774.69327	-382.59265	-241.83503	666.11915	-352.42119	-228.21938	728.23285	-873.79574	-222.28077	608.52544	-900.26239	-140.04974	1138.80653	-459.73112	-135.05767	1030.52168	-436.71012	-241.33385	1022.10727	-413.60395	-251.34164	1137.61513	-434.75711	-187.79814	1012.97550	-398.27968	-224.12407	1080.49923	-873.48443	-177.59593	950.43313	-881.73456	-309.34057	1043.11778	-804.72737	-260.94389	912.79808	-826.86188	-130.48559	1287.57897	-540.26717	-318.41325	1338.30496	-597.20091	-159.20096	1260.83147	-787.28687	-338.02810	1334.68092	-693.41034	-172.19778	1724.96593	-667.17755	-67.90960	1655.73375	-519.71732	-139.61722	1677.42773	-845.80405	-43.81314	1644.28615	-664.97016	-50.01139	1648.07067	-715.96072	-49.27270	1537.96941	-446.26659	-125.08950	1328.88235	-421.93246	-66.44519	1349.97626	-371.02293	26.27765	1314.40079	-476.39381	96.37353	1282.45606	-570.75274	106.94768	1248.60633	-562.92191	-176.94881	1582.98719	-920.65097	-320.50292	1388.48285	-891.73242	-301.30007	1420.22814	-969.85001	-196.47187	1407.91664	-939.72861	-62.00548	1373.03179	-901.87990	-59.04563	1352.11338	-928.83128	-213.27757	1213.77770	-546.28303	-240.84211	1197.72133	-750.27407	-204.52038	1212.47791	-557.53724	-237.47377	1206.39189	-719.17793	
206	2.05000000	-178.28291	815.60195	-406.50901	-143.46800	749.97427	-403.15345	-223.47758	418.70228	-319.96936	-290.91403	420.13347	-360.16204	-160.67152	310.14915	-284.71561	-100.37914	312.47777	-333.24286	-177.01355	805.95872	-873.92534	-142.47192	723.29634	-901.13661	-175.38813	405.26565	-914.06281	-216.03294	403.62715	-840.35104	-122.25126	294.46626	-967.38674	-56.08038	308.31400	-946.32393	-168.63395	648.02556	-352.89105	-220.82732	769.83972	-381.68039	-240.10772	661.45995	-350.74703	-227.55608	723.79336	-876.05937	-222.26780	604.12065	-902.27431	-140.43841	1133.29885	-460.12452	-134.89368	1025.39596	-436.86694	-240.75839	1016.31984	-412.60183	-251.49345	1131.56342	-434.37893	-186.51589	1006.67338	-398.79454	-222.63146	1075.83303	-875.27836	-176.81809	945.60684	-883.38401	-308.86541	1038.81362	-807.31771	-260.95987	908.18508	-829.10936	-130.99938	1281.16390	-541.73790	-319.29411	1333.86055	-597.90779	-160.51896	1255.57606	-788.21709	-338.51993	1330.62204	-693.73664	-171.78632	1719.12344	-666.70472	-67.04148	1649.17311	-519.88886	-140.64601	1672.42973	-845.54840	-43.60533	1638.28070	-665.18731	-50.03128	1642.13417	-716.38882	-46.64729	1530.32781	-448.54879	-124.44371	1321.64090	-422.22983	-64.47686	1343.35623	-372.33223	27.03147	1307.34923	-478.52122	96.17875	1275.52340	-573.51128	106.81241	1241.59745	-565.76073	-180.17163	1579.57815	-921.25059	-323.91395	1385.46712	-891.69865	-305.82150	1418.00494	-969.94966	-200.43925	1404.41295	-941.62429	-65.82991	1367.91841	-905.92456	-63.52937	1347.10379	-932.97106	-214.61731	1208.17603	-547.50159	-242.74149	1193.04478	-751.48485	-206.32509	1207.03433	-559.26208	-238.70877	1201.57922	-720.66437	
207	2.06000000	-177.11362	809.30046	-406.23181	-142.33416	743.70873	-403.18810	-222.84505	413.07788	-318.18500	-290.69111	414.22181	-357.74259	-159.53474	305.36588	-282.25940	-99.62969	307.05141	-332.27940	-176.91462	799.87196	-875.26542	-142.04253	717.08018	-902.11361	-177.51527	399.34199	-915.01823	-218.83848	397.59553	-841.76694	-124.51466	288.58635	-968.29006	-58.45013	302.20792	-946.96565	-167.40136	642.02763	-352.34296	-219.33886	764.17068	-380.84977	-238.72565	655.83589	-349.50684	-227.40772	718.20142	-877.67381	-222.69391	598.44181	-904.14454	-141.11310	1126.96971	-460.34794	-135.30722	1019.22021	-437.01767	-240.84376	1009.81112	-412.20330	-252.19928	1124.78107	-434.65478	-186.14069	999.42942	-399.38500	-221.32687	1070.05423	-876.49153	-176.54307	939.50844	-884.50389	-308.49474	1033.56782	-809.36056	-261.23599	902.49669	-830.73633	-130.86970	1273.25195	-543.49366	-319.89548	1328.28911	-598.25033	-161.87574	1249.48119	-789.52848	-338.80867	1325.44382	-694.36444	-171.58286	1712.41687	-666.06780	-66.37804	1641.59213	-520.29337	-141.74166	1666.54718	-845.26292	-43.54692	1631.47302	-665.36908	-50.17144	1635.34214	-716.61379	-44.77672	1521.97420	-450.48345	-124.00843	1313.72855	-421.90224	-62.77808	1335.56104	-373.58400	27.74622	1299.62038	-480.35043	96.24654	1267.87528	-575.95536	106.90472	1233.96753	-568.07833	-183.48512	1575.40065	-921.56774	-327.34494	1381.51324	-891.78209	-310.33140	1414.91937	-969.92326	-204.40113	1400.07957	-943.69995	-69.77972	1361.93320	-909.46089	-68.03344	1341.32469	-936.75197	-215.53456	1201.19346	-549.11104	-244.56636	1187.44214	-753.06745	-207.96487	1200.43556	-561.32259	-239.69880	1195.66058	-722.57790	
208	2.07000000	-176.29903	802.31491	-406.06085	-141.37838	736.60679	-403.09367	-222.73722	406.48935	-316.87928	-290.65766	407.12419	-356.33626	-159.05931	299.40942	-280.08679	-99.11965	300.93098	-330.47913	-177.06684	793.03854	-876.65449	-142.37720	709.78142	-902.88353	-179.72350	392.38299	-916.15945	-221.60222	390.67896	-843.15317	-127.13448	281.70380	-969.61438	-61.12109	294.95439	-948.09914	-166.54528	635.30756	-351.66113	-218.29439	757.51567	-380.25162	-237.72766	649.31192	-348.54707	-227.85786	711.43696	-878.92615	-223.56518	591.61580	-905.79161	-142.02778	1119.81758	-460.56430	-135.93298	1011.95351	-437.24529	-241.48802	1002.42763	-412.43509	-253.26528	1117.26870	-435.33882	-186.71953	992.00404	-399.49126	-220.45712	1063.07394	-877.37306	-176.63276	932.09259	-884.81331	-308.31461	1027.34452	-811.04474	-261.83649	895.71324	-831.85281	-130.68927	1264.41804	-545.04246	-320.26348	1321.56249	-598.47343	-162.98165	1242.24585	-790.66725	-338.98234	1319.15989	-694.88924	-171.48081	1704.78215	-665.34110	-65.88373	1633.22592	-520.52513	-142.86807	1659.75330	-844.83098	-43.60480	1623.76537	-665.65144	-50.41799	1627.77347	-716.65162	-43.81186	1513.03122	-451.74611	-123.50952	1305.00838	-422.02936	-61.40853	1326.65991	-374.89595	28.33949	1291.21721	-481.87652	96.52998	1259.65450	-577.84169	107.16149	1225.76014	-569.93244	-186.81419	1570.15085	-921.08628	-330.72909	1376.54964	-891.95832	-314.82901	1410.85529	-969.62221	-208.36567	1394.95749	-945.70988	-73.80679	1355.18040	-912.39164	-72.53090	1334.83652	-939.94255	-216.28752	1193.21228	-550.50892	-246.13682	1180.71140	-754.42985	-209.26052	1192.67009	-563.14960	-240.53631	1188.65896	-724.25154	
